<?xml version="1.0" encoding="UTF-8" standalone="no"?>
<svg
   width="280.37839pt"
   height="213.12524pt"
   version="1.1"
   viewBox="0 0 280.37839 213.12524"
   id="svg158"
   xmlns="http://www.w3.org/2000/svg"
   xmlns:svg="http://www.w3.org/2000/svg">
  <defs
     id="defs74" />
  <g
     id="g156"
     transform="translate(-209.80744,-173.43847)">
    <path
       d="m 466.89,173.46 c -5.8242,0.18359 -11.348,2.6328 -15.398,6.8242 -54.871,54.988 -96.418,100.61 -148.05,153.12 l -56.699,-47.949 c -4.5234,-3.8516 -10.395,-5.75 -16.32,-5.2734 -5.9219,0.47656 -11.418,3.2852 -15.27,7.8086 -3.8516,4.5273 -5.75,10.398 -5.2734,16.32 0.47656,5.9258 3.2891,11.418 7.8125,15.27 l 72.801,61.602 c 4.293,3.6719 9.8164,5.5898 15.465,5.3633 5.6484,-0.23047 11,-2.582 14.984,-6.5898 60.195,-60.324 103.13,-108.6 162.4,-168 h 0.004 c 4.3789,-4.2305 6.8477,-10.062 6.8398,-16.148 -0.0117,-6.0898 -2.5,-11.914 -6.8906,-16.129 -4.3945,-4.2188 -10.316,-6.4648 -16.402,-6.2227 z"
       id="path76"
       style="fill:#25482e;fill-opacity:1" />
  </g>
</svg>
