<?xml version="1.0" encoding="UTF-8" standalone="no"?>
<svg
   width="476.03738"
   zoomAndPan="magnify"
   viewBox="0 0 357.02804 500.13272"
   height="666.84363"
   preserveAspectRatio="xMidYMid"
   version="1.0"
   id="svg37"
   sodipodi:docname="Green Aesthetic To Do List Facebook Post.svg"
   inkscape:export-filename="Green Aesthetic To Do List Facebook Post.svg"
   inkscape:export-xdpi="96"
   inkscape:export-ydpi="96"
   xmlns:inkscape="http://www.inkscape.org/namespaces/inkscape"
   xmlns:sodipodi="http://sodipodi.sourceforge.net/DTD/sodipodi-0.dtd"
   xmlns="http://www.w3.org/2000/svg"
   xmlns:svg="http://www.w3.org/2000/svg">
  <sodipodi:namedview
     id="namedview39"
     pagecolor="#505050"
     bordercolor="#eeeeee"
     borderopacity="1"
     inkscape:showpageshadow="0"
     inkscape:pageopacity="0"
     inkscape:pagecheckerboard="0"
     inkscape:deskcolor="#505050"
     showgrid="false"
     inkscape:document-units="mm" />
  <defs
     id="defs5">
    <clipPath
       id="d525d21682">
      <path
         d="M 93,87.777344 H 267 V 173 H 93 Z m 0,0"
         clip-rule="nonzero"
         id="path2" />
    </clipPath>
  </defs>
  <path
     fill="#ed7093"
     d="m 349.22137,492.74314 c -8.08203,7.83204 -21.03125,6.34375 -31.26953,5.85157 -16.3086,-0.78125 -32.59766,-1.47266 -48.92578,-1.67969 -45.6836,-0.57813 -91.3711,-0.38672 -137.05469,-0.12109 -27.625,0.16015 -49.371089,2.8164 -76.988276,2.24218 -11.804688,-0.25 -26.011719,3.38672 -36.300781,-1.36328 C 1.3619995,489.66893 2.5612185,455.69627 2.6940305,440.66893 3.0260625,403.66111 0.93231251,368.59861 0.93231251,331.38768 c -0.00391,-58.07422 0,-116.14844 0,-174.22657 0,-18.6914 -1.265626,-37.375 -0.847657,-56.0664 0.304688,-13.671881 -0.457031,-33.433601 15.17578149,-37.019531 23.8125,-5.46094 48.796876,-5.41797 72.753907,-3.65235 25.273436,1.86719 47.671866,-1.25781 72.984366,-1.05469 28.01172,0.21485 58.92188,1.57422 86.9336,1.5625 24.35547,0 41.13281,-2.21093 65.4414,-1.37109 13.10547,0.44922 35.16016,7.62109 40.80078,20.74219 2.09766,4.8789 3.82813,23.980471 2.22657,36.964841 -2.76563,22.37891 -3.86719,45.57813 -3.19922,68.10938 1.44922,48.55468 2.0664,97.22656 1.10937,145.79687 -0.48437,24.41016 1.02735,48.79297 -0.15625,73.1875 -1.1875,24.58985 2.99219,49.84766 0.97657,74.15235 -0.55079,6.57031 -2.70313,11.12109 -5.91016,14.23046 z m 0,0"
     fill-opacity="1"
     fill-rule="nonzero"
     id="path7" />
  <path
     fill="#ffffff"
     d="m 327.72528,143.45408 c -2.31641,18.76172 -3.23047,38.22266 -2.67969,57.13672 1.21094,40.71484 1.74609,81.55469 0.9375,122.29688 -0.40625,20.48437 0.84765,40.92578 -0.12891,61.39062 -0.48828,10.125 0.0859,20.375 0.64063,30.61328 0.043,0.97656 0.10547,1.9336 0.14453,2.88672 -16.89453,13.59375 -32.79297,28.50781 -47.73438,44.28906 -0.16797,0.17188 -0.3164,0.33985 -0.48828,0.51172 -7.99219,-0.3164 -15.98047,-0.55078 -23.97265,-0.65625 -38.31641,-0.49219 -76.65625,-0.32031 -114.97266,-0.10547 -23.16797,0.14453 -41.42187,2.35938 -64.589839,1.88672 -9.902344,-0.21094 -21.824218,2.83203 -30.453125,-1.14453 C 29.912781,455.8408 30.912781,427.35252 31.01825,414.73924 31.291687,383.70408 29.5495,354.28221 29.5495,323.05174 V 176.91502 c 0,-15.67969 -1.0625,-31.35938 -0.722656,-47.03516 0.253906,-11.46484 -0.382813,-28.03515 12.730469,-31.054681 19.976562,-4.57422 40.929687,-4.53516 61.035147,-3.06641 21.21094,1.57422 39.9961,-1.0625 61.23047,-0.89453 23.48438,0.1914 49.41016,1.33984 72.91797,1.32031 20.42188,0 34.51172,-1.85156 54.89453,-1.14844 10.98828,0.38672 29.5,6.402351 34.23828,17.402351 1.7461,4.08593 3.21094,20.12109 1.85157,31.01562 z m 0,0"
     fill-opacity="1"
     fill-rule="nonzero"
     id="path9" />
  <path
     fill="#acbfc3"
     d="m 326.63934,417.78221 c -16.89453,13.59375 -32.79297,28.50781 -47.73438,44.28906 -0.67578,-6.37891 -0.27343,-13.48438 -0.65625,-16.82813 -0.85156,-7.69921 -6.5039,-18.99218 -4.91015,-26.46093 1.44531,-6.69922 19.04297,-5.97657 25.75781,-5.97657 9.24609,0 17.76562,1.1875 26.4375,2 0.32031,0.0195 0.63672,0.0625 0.95703,0.0859 0.043,0.97656 0.10938,1.9336 0.14844,2.89063 z m 0,0"
     fill-opacity="1"
     fill-rule="nonzero"
     id="path27" />
  <g
     clip-path="url(#d525d21682)"
     id="g31"
     transform="translate(-1.1848755,-87.803731)">
    <path
       fill="#f5c07f"
       d="m 266.07031,138.84375 c 0.082,-4.36328 -1.14453,-8.22266 -0.41406,-12.57422 0.69141,-4.1289 0.70703,-8.43359 -1.43359,-12.53515 -1.40235,-2.69532 -9.15235,-2.5586 -14.50782,-2.61329 -6.6914,-0.0664 -13.38281,0.0977 -20.07812,0.125 0.0703,-2.41796 0.26562,-4.94921 0.30469,-7.30468 0.0469,-2.53907 -0.66797,-4.781254 -0.24219,-7.31641 0.40234,-2.402344 0.41406,-4.902344 -0.83203,-7.292969 -0.81641,-1.566406 -5.32032,-1.488281 -8.4375,-1.519531 -4.26172,-0.04297 -8.52344,0.08594 -12.78125,0.08594 -13.2461,0 -26.48828,0 -39.72657,0 -8.48437,0 -16.48046,0.210937 -24.91406,0.175781 -3.42969,-0.01172 -11.17578,-0.132813 -13,1.605469 -1.08203,1.03125 -0.2539,2.453124 -0.30859,3.636718 -0.13281,2.765625 0.47265,4.945313 0.51172,7.714842 0.043,3.49609 0.0586,6.98828 0.0117,10.48438 -4.49219,0.043 -9,0.0703 -13.59375,0.0508 -5.89063,-0.0234 -19.207035,-0.22657 -22.343754,2.75781 -1.863281,1.77344 -0.433594,4.21875 -0.535156,6.25391 -0.226562,4.75781 0.816406,8.5039 0.878906,13.26562 0.101563,7.86719 0.179688,15.73828 -0.04687,23.60937 -0.08203,2.8125 -0.351562,5.61719 -0.660156,8.42969 -0.191406,1.76563 -0.773437,3.9961 2.296875,5.38672 1.214844,0.54688 2.996094,0.92188 5.574215,1.01563 9.52734,0.34765 19.42578,-0.375 29.0625,-0.16797 9.5625,0.20312 19.11719,-0.0547 28.6875,0.0273 19.03515,0.16406 38.10937,0.0586 57.14062,-0.19141 8.83203,-0.11718 17.92578,0.0742 26.69532,0.55469 5.08593,0.27344 12.57812,-0.0273 14.48828,-0.38672 5.14062,-0.96875 7.94922,-4.76953 8.1289,-7.02734 0.32813,-4.1875 -0.53906,-7.07813 -0.53906,-11.27344 -0.004,-4.82812 0.52734,-10.14844 0.61328,-14.97656 z m 0,0"
       fill-opacity="1"
       fill-rule="nonzero"
       id="path29" />
  </g>
  <path
     fill="#ffffff"
     d="m 118.43231,56.215799 c 2.03125,4.33594 9.64453,5.69141 13.57422,3.91016 4.07421,-1.84766 5.4375,-8.41407 3.46093,-12.125 -2.05078,-3.83985 -9.75,-6.57032 -13.39062,-4.08985 -2.89844,1.98047 -5.17188,9.05078 -3.64453,12.30469 z m 0,0"
     fill-opacity="1"
     fill-rule="nonzero"
     id="path33" />
  <path
     fill="#ffffff"
     d="m 221.15106,56.215799 c 2.03125,4.33594 9.64843,5.69141 13.57422,3.91016 4.07421,-1.84766 5.4375,-8.41407 3.46093,-12.125 -2.05078,-3.83985 -9.75,-6.57032 -13.39062,-4.08985 -2.89844,1.98047 -5.17188,9.05078 -3.64453,12.30469 z m 0,0"
     fill-opacity="1"
     fill-rule="nonzero"
     id="path35" />
</svg>
